<svg width="17" height="12" viewBox="0 0 17 12" fill="none" xmlns="http://www.w3.org/2000/svg">
<path d="M1.24414 4.7832C0.829927 4.7832 0.494141 5.11899 0.494141 5.5332C0.494141 5.94742 0.829927 6.2832 1.24414 6.2832L1.24414 4.7832ZM16.1661 6.06353C16.459 5.77064 16.459 5.29576 16.1661 5.00287L11.3931 0.229901C11.1002 -0.062992 10.6253 -0.062992 10.3324 0.229901C10.0395 0.522795 10.0395 0.997668 10.3324 1.29056L14.5751 5.5332L10.3324 9.77584C10.0395 10.0687 10.0395 10.5436 10.3324 10.8365C10.6253 11.1294 11.1002 11.1294 11.3931 10.8365L16.1661 6.06353ZM1.24414 6.2832L15.6357 6.2832L15.6357 4.7832L1.24414 4.7832L1.24414 6.2832Z" fill="white"/>
</svg>
