<svg width="18" height="18" viewBox="0 0 18 18" fill="none" xmlns="http://www.w3.org/2000/svg">
<path d="M11.7246 0.816783C12.5408 0.846259 13.3278 0.751681 14.1092 0.88016C16.0351 1.19686 17.4956 2.902 17.4981 4.84964C17.5016 7.69068 17.5021 10.5317 17.498 13.3728C17.4953 15.25 15.9783 16.9874 14.107 17.2759C13.8938 17.3088 13.6827 17.3378 13.4662 17.3377C10.6347 17.336 7.80322 17.3416 4.97173 17.3353C2.73443 17.3304 0.912201 15.5031 0.910144 13.2714C0.907563 10.4732 0.907461 7.67505 0.910412 4.87689C0.912769 2.64204 2.73437 0.822043 4.97415 0.817908C7.21352 0.813774 9.4529 0.816872 11.7246 0.816783ZM4.31926 15.522C4.54684 15.5916 4.77809 15.6256 5.01771 15.6254C7.79546 15.6232 10.5732 15.6291 13.351 15.6229C14.7493 15.6197 15.7736 14.5974 15.777 13.2013C15.7835 10.4459 15.7831 7.69057 15.7767 4.93523C15.7736 3.55736 14.7452 2.53483 13.3682 2.53285C10.5904 2.52885 7.81267 2.5292 5.03492 2.53318C3.67499 2.53513 2.63475 3.55839 2.63139 4.90951C2.6245 7.68629 2.62664 10.4631 2.63182 13.2399C2.63379 14.3009 3.2556 15.1472 4.31926 15.522Z" fill="white"/>
<path d="M7.95541 5.11183C10.2504 4.45426 12.4901 5.666 13.1638 7.75412C13.9831 10.2934 12.3917 12.8689 9.7292 13.1926C6.99953 13.5246 5.05512 11.4521 5.04641 9.16318C5.03899 7.21431 6.12829 5.69265 7.95541 5.11183ZM6.81951 9.61465C7.15146 11.0489 8.55922 11.8434 9.97334 11.3946C11.3317 10.9635 12.0237 9.44416 11.4657 8.11828C10.9855 6.97737 9.72655 6.38785 8.50583 6.73224C7.28121 7.07773 6.58447 8.23602 6.81951 9.61465Z" fill="white"/>
<path d="M12.5433 4.64599C12.7934 4.19945 13.1578 4.02158 13.5588 4.12915C13.9401 4.23144 14.198 4.56377 14.1995 4.95466C14.2009 5.34546 13.9507 5.67486 13.5614 5.78265C13.2428 5.87086 12.9562 5.78723 12.7337 5.55722C12.4947 5.31022 12.4063 5.00943 12.5433 4.64599Z" fill="white"/>
</svg>
